<svg xmlns="http://www.w3.org/2000/svg" width="200" height="199.999" viewBox="0 0 200 199.999">
  <g id="Blog_Icon" data-name="Blog Icon" transform="translate(0 0)">
    <path id="Path_204" data-name="Path 204" d="M147.379,0h-94A53.26,53.26,0,0,0,0,52.92V189.1A11.26,11.26,0,0,0,11.22,200H147.379A52.74,52.74,0,0,0,200,146.959v-94A52.6,52.6,0,0,0,147.379,0Zm-34.24,142.419H39.4a5.66,5.66,0,0,1,0-11.12h73.74a5.66,5.66,0,0,1,0,11.12Zm48.38-31.3H39.3a5.66,5.66,0,0,1,0-11.12H161.519a5.66,5.66,0,0,1,0,11.12Zm0-31.32H39.3a5.14,5.14,0,0,1-4.54-5.56,5.14,5.14,0,0,1,4.54-5.56H161.519A5.14,5.14,0,0,1,166,74.24a5.14,5.14,0,0,1-4.48,5.56Zm0-31.32H39.3a5.14,5.14,0,0,1-4.54-5.56,5.14,5.14,0,0,1,4.54-5.56H161.519A5.14,5.14,0,0,1,166,42.92a5.14,5.14,0,0,1-4.48,5.56Z" transform="translate(0 0)" fill="#fff"/>
  </g>
</svg>
