<svg xmlns="http://www.w3.org/2000/svg" width="147.602" height="225" viewBox="0 0 147.602 225">
  <g id="noun_Bubble_Tea_56326" data-name="noun_Bubble Tea_56326" transform="translate(-20.456 -5.03)">
    <path id="Path_214" data-name="Path 214" d="M109.879,197.735c-18.8,0-30.448-8.853-37.423-17.678-4.159-7.531-17.4-40.625-30.193-72.629-8.336-20.836-16.21-40.52-19.742-48.544l5.82-2.558c3.57,8.121,11.463,27.853,19.817,48.739,12.14,30.351,25.9,64.751,29.579,71.5,8.081,10.147,24.37,20.726,54.484,10.941,17.843-8.3,26.2-20.753,26.4-29.359-2.091-25.432-3.135-127.176-3.177-131.495l6.355-.062c.012,1.054,1.087,105.835,3.165,131.378-.3,13.232-12.245,27.011-30.428,35.442A79.649,79.649,0,0,1,109.879,197.735Z" transform="translate(3.093 32.295)" fill="#fff"/>
    <ellipse id="Ellipse_4" data-name="Ellipse 4" cx="7.794" cy="7.494" rx="7.794" ry="7.494" transform="translate(99.922 203.601)"/>
    <ellipse id="Ellipse_5" data-name="Ellipse 5" cx="7.794" cy="7.494" rx="7.794" ry="7.494" transform="translate(131.412 196.107)"/>
    <ellipse id="Ellipse_6" data-name="Ellipse 6" cx="7.794" cy="7.494" rx="7.794" ry="7.494" transform="translate(143.028 179.92)"/>
    <ellipse id="Ellipse_7" data-name="Ellipse 7" cx="7.794" cy="7.494" rx="7.794" ry="7.494" transform="translate(93.877 176.623)"/>
    <ellipse id="Ellipse_8" data-name="Ellipse 8" cx="7.794" cy="7.494" rx="7.794" ry="7.494" transform="translate(124.67 170.927)"/>
    <ellipse id="Ellipse_9" data-name="Ellipse 9" cx="7.794" cy="7.494" rx="7.794" ry="7.494" transform="translate(82.536 193.397)"/>
    <ellipse id="Ellipse_10" data-name="Ellipse 10" cx="7.794" cy="7.494" rx="7.794" ry="7.494" transform="translate(112.17 187.414)"/>
    <g id="Group_2" data-name="Group 2" transform="translate(68.534 5.03)">
      <path id="Path_215" data-name="Path 215" d="M48.921,21.894c-4.661,0-8.111-2.048-9.005-5.343-1.2-4.466,2.805-9.158,9.323-10.924,6.3-1.706,12.375.362,13.559,4.719,1.2,4.466-2.805,9.158-9.323,10.924A17.353,17.353,0,0,1,48.921,21.894Zm-2.855-6.919a6.349,6.349,0,0,0,2.855.565,11.314,11.314,0,0,0,2.893-.4c3.27-.884,4.784-2.655,4.841-3.207a5.162,5.162,0,0,0-2.86-.567,11.419,11.419,0,0,0-2.893.4c-3.265.887-4.784,2.66-4.841,3.215C46.061,14.974,46.061,14.974,46.066,14.974Z" transform="translate(-39.703 -5.03)" fill="#fff"/>
      <path id="Path_216" data-name="Path 216" d="M58.975,62.491a12.27,12.27,0,0,1-8.993-3.425l-.6-.649L39.768,12.378l6.218-1.3,9.223,44.125a8.452,8.452,0,0,0,6.205.624,6.72,6.72,0,0,0,4.834-3.857C63.956,41.428,56.912,9.251,56.912,9.251l6.205-1.359s7.442,33.978,9.515,43.555l.162.739-.187.729c-1.167,4.519-4.679,7.826-9.637,9.08A16.528,16.528,0,0,1,58.975,62.491Z" transform="translate(-39.605 -0.743)" fill="#fff"/>
    </g>
    <path id="Path_217" data-name="Path 217" d="M77.083,100.778c-13.524,0-24.2-2.113-28.784-3.7C32.561,91.612,17.143,79.252,21.078,60.942,29.134,35.819,60,20.389,73.693,16.8l1.614,6.15c-12.6,3.295-40.93,17.321-48.1,39.628C23.436,80.221,43.992,88.855,50.384,91.073c11.861,4.112,67.379,11.965,102.138-28.67,4.431-5.5,8.316-15.4,4.486-24.94-4.127-10.289-15.942-16.991-34.178-19.38-12.815-1.819-28.964.527-30.758.8l-1.439.217-1.149-.947L91.1,12.608c1.911-.292,18.927-2.745,32.589-.819C149.742,15.2,159.4,26.347,162.9,35.1c3.989,9.952,1.836,22.265-5.493,31.362C133.705,94.18,100.956,100.778,77.083,100.778Z" transform="translate(0 9.029)" fill="#fff"/>
  </g>
</svg>
