<svg xmlns="http://www.w3.org/2000/svg" width="228.658" height="240" viewBox="0 0 228.658 240">
  <path id="noun_Construction_780223" d="M194.351,240.361a31.437,31.437,0,0,0,30.727-50.46L138.9,83.128a8.153,8.153,0,0,0-10.871-1.665l-17.971,12a8.153,8.153,0,0,0-2.644,10.675l65.542,120.483a31.388,31.388,0,0,0,21.4,15.743Zm-8.545-211.61a1.591,1.591,0,0,1-.269,2.081L173.956,41.409a1.591,1.591,0,0,1-2.057,0A27.911,27.911,0,0,0,127.438,68.83a3.109,3.109,0,0,1-1.493,3.207L102.612,87.609l-8.373-3.6a9.206,9.206,0,0,0-8.765.808h0A9.206,9.206,0,0,0,81.385,92.6v9.108l-12.707,8.569a7.345,7.345,0,0,1-10.161-2.032L30.484,66.333a7.345,7.345,0,0,1,2.032-10.161l12.878-8.618,8.324,3.624a9.23,9.23,0,0,0,8.839-.808h0a9.01,9.01,0,0,0,4.089-7.712L66.474,33.5h0L99.355,11.465a62.31,62.31,0,0,1,86.451,17.285ZM39.787,176.337V144.973a6.464,6.464,0,0,1,6.464-6.464h46.91a6.464,6.464,0,0,1,6.464,6.464v31.363a6.464,6.464,0,0,1-6.464,6.488H46.251a6.464,6.464,0,0,1-6.464-6.488Zm89.9,60.89H82.731a6.464,6.464,0,0,1-6.464-6.464V199.351a6.464,6.464,0,0,1,6.464-6.464H129.69a6.464,6.464,0,0,1,6.488,6.464v31.388a6.464,6.464,0,0,1-6.488,6.488Zm-72.961,0H9.771a6.464,6.464,0,0,1-6.464-6.464V199.351a6.464,6.464,0,0,1,6.464-6.464H56.73a6.464,6.464,0,0,1,6.488,6.464v31.388a6.464,6.464,0,0,1-6.488,6.488Z" transform="translate(-3.307 -0.975)" fill="#dccdee"/>
</svg>
