<svg xmlns="http://www.w3.org/2000/svg" width="199.712" height="177.996" viewBox="0 0 199.712 177.996">
  <g id="noun_drill_8644_000000" transform="translate(-0.001 -5.437)">
    <g id="Group_5" data-name="Group 5" transform="translate(0.001 5.437)">
      <path id="Path_237" data-name="Path 237" d="M178.836,171.908a2.635,2.635,0,0,1-1.989-3.191c4.264-18.39-3.425-27.391-8.388-31.118-7.262-5.452-17.377-6.439-24.607-2.4-5.762,3.223-8.548,9.137-7.845,16.656,1.662,17.685-12.742,29.859-27.617,31.413a31.151,31.151,0,0,1-3.217.164c-11.715,0-24.777-6.678-28.973-25.418A19.852,19.852,0,0,1,53.723,143.89L41.184,99.8,79.37,88.938l12.54,44.089a19.833,19.833,0,0,1-10.627,23.361C85,173.831,97.119,179.1,107.837,177.975c12.3-1.28,24.221-11.22,22.871-25.621-.9-9.6,2.942-17.547,10.545-21.8,9.009-5.037,21.511-3.89,30.4,2.792,10.2,7.667,13.986,21,10.373,36.572C181.961,170.212,180.907,172.323,178.836,171.908ZM45.2,90.729A35.482,35.482,0,0,1,25.784,22.473L84.654,5.727l19.414,68.255ZM150.6,28.2l-1,.284a26.033,26.033,0,0,1-18.719,28.07L109.83,62.538,108.7,58.555l16.149-4.589a4.172,4.172,0,0,0-2.283-8.027l-16.143,4.589-2.57-9.035L119.992,36.9a4.173,4.173,0,0,0-2.281-8.029l-16.143,4.591L99,24.428l16.141-4.589a4.173,4.173,0,1,0-2.285-8.027L96.711,16.4l-1.128-3.982,21.04-5.983a26.029,26.029,0,0,1,30.69,14.016l7.2-2.043Zm8.68-2.468-4.368,1.242,3.9-9.784,4.37-1.244Zm8.676-2.468L163.584,24.5l3.9-9.786,4.37-1.244Zm8.674-2.468-4.368,1.246,3.9-9.788,4.372-1.24Zm8.676-2.464-4.364,1.238,3.9-9.784,4.366-1.24Zm11.38-3.237L189.613,17.1l3.9-9.784.881-.25a4.171,4.171,0,1,1,2.283,8.025Z" transform="translate(-0.001 -5.437)" fill="#fff" fill-rule="evenodd"/>
    </g>
  </g>
</svg>
