<svg xmlns="http://www.w3.org/2000/svg" width="233.632" height="200" viewBox="0 0 233.632 200">
  <g id="noun_Dog_549852" transform="translate(-2.492 -5.8)">
    <path id="Path_209" data-name="Path 209" d="M21.9,29.8A6.87,6.87,0,0,0,15.5,34a1.208,1.208,0,0,0,2.2,1,4.485,4.485,0,0,1,8.6,1.8,1.2,1.2,0,0,0,2.4,0A6.73,6.73,0,0,0,21.9,29.8Z" transform="translate(76.183 126.925)" fill="#fff"/>
    <path id="Path_210" data-name="Path 210" d="M38.191,203.733c9.3,0,15.5-2.067,19.638-4.134,3.618,3.618,8.269,6.2,13.437,6.2h60.982a6.2,6.2,0,1,0,0-12.4H71.266c-2.067,0-4.651-2.067-6.718-5.168a.506.506,0,0,0-.517-.517,26.948,26.948,0,0,1-2.584-11.886c0-22.739,22.222-79.587,53.23-105.943,2.584,6.2,8.269,13.953,20.155,21.705s22.739,9.819,29.974,9.819h.517c-1.55,29.457-1.034,49.1,11.886,86.822a6.231,6.231,0,0,0,6.2,4.134h12.92a6.284,6.284,0,0,0,6.2-6.2,6.669,6.669,0,0,0-6.2-6.2h-8.269c-11.37-35.659-11.37-53.23-9.3-84.755l1.55-9.819c4.651,0,8.786-.517,12.4-.517,6.2,0,11.37-.517,17.571-.517,11.369,0,18.6-4.651,21.189-13.953,1.034-4.651,2.067-7.235,2.067-8.269a24.284,24.284,0,0,0,2.584-11.37c0-12.4-9.819-14.47-13.953-15.5-1.55-.517-3.1-.517-4.134-1.034-5.168-1.034-7.752-1.55-11.37-5.168l-3.1-3.1C196.331,17.686,184.961,5.8,165.84,5.8c-27.39,0-38.76,18.6-41.86,29.974-5.168,5.685-8.269,15.5-9.819,20.155-39.793,27.39-64.6,94.057-64.6,120.93A56.182,56.182,0,0,0,51.628,190.3c-2.584,1.034-6.2,2.067-12.92,2.067-7.235,0-23.773-3.1-23.773-33.075,0-12.4,2.584-23.256,7.752-31.525a6.049,6.049,0,0,0-2.067-8.786,6.049,6.049,0,0,0-8.786,2.067c-6.2,10.853-9.3,23.773-9.3,38.243C1.5,191.846,20.62,203.733,38.191,203.733ZM133.8,41.976a8.329,8.329,0,0,0,2.067-3.618c0-1.034,3.618-21.189,29.457-21.189,13.437,0,21.705,8.786,28.424,16.021,1.034,1.034,2.067,2.584,3.1,3.618,6.718,6.718,12.4,7.752,18.6,9.3a15.976,15.976,0,0,1,4.134,1.034c3.1.517,3.618,1.034,3.618,1.034v1.55a13.712,13.712,0,0,1-1.034,5.685h0c-.517.517-.517,1.034-1.034,2.067,0,0-.517,1.034-2.584,9.3-.517,2.584-1.55,4.134-8.786,4.134-6.2,0-11.886,0-18.088.517-5.168,0-10.853.517-17.571.517a6.647,6.647,0,0,0-6.2,5.168l-1.55,10.853c-4.651.517-13.437-.517-24.289-7.752C126.046,69.883,125.53,60.58,125.53,59.547,127.08,53.345,130.7,44.56,133.8,41.976Z" transform="translate(0 0)" fill="#fff"/>
    <path id="Path_211" data-name="Path 211" d="M33.1,44.5h2.7a1.2,1.2,0,0,0,0-2.4H34a67.405,67.405,0,0,1-2.6-13.4,1.2,1.2,0,1,0-2.4.2,62.831,62.831,0,0,0,3,14.8A1.011,1.011,0,0,0,33.1,44.5Z" transform="translate(134.22 161.3)" fill="#fff"/>
    <path id="Path_212" data-name="Path 212" d="M33.4,17.3a3.525,3.525,0,0,0,3.8-3.7A6.974,6.974,0,0,0,36.1,10,1.235,1.235,0,0,0,34,11.3a4.4,4.4,0,0,1,.7,2.2c0,.9-.4,1.2-1.3,1.2a2.2,2.2,0,0,1-2.1-1.9,1.259,1.259,0,1,0-2.5.3A4.744,4.744,0,0,0,33.4,17.3Z" transform="translate(134.654)" fill="#fff"/>
  </g>
</svg>
