<svg xmlns="http://www.w3.org/2000/svg" width="110" height="200" viewBox="0 0 110 200">
  <g id="Facebook_Icon" data-name="Facebook Icon" transform="translate(4.923 53)">
    <path id="Path_205" data-name="Path 205" d="M127.935.042,101.551,0c-29.642,0-48.8,19.319-48.8,49.22V71.914H26.226a4.114,4.114,0,0,0-4.149,4.08v32.881a4.114,4.114,0,0,0,4.149,4.078H52.754v82.969A4.112,4.112,0,0,0,56.9,200H91.514a4.114,4.114,0,0,0,4.149-4.078V112.953H126.68a4.112,4.112,0,0,0,4.149-4.078l.013-32.881a4.049,4.049,0,0,0-1.215-2.884,4.186,4.186,0,0,0-2.936-1.2H95.662V52.676c0-9.246,2.242-13.94,14.495-13.94l17.773-.006a4.113,4.113,0,0,0,4.146-4.078V4.12A4.115,4.115,0,0,0,127.935.042Z" transform="translate(-27 -53)" fill="#fff"/>
  </g>
</svg>
