<svg id="Gallery_Icon" data-name="Gallery Icon" xmlns="http://www.w3.org/2000/svg" width="243.636" height="200" viewBox="0 0 243.636 200">
  <path id="Path_201" data-name="Path 201" d="M32,220H200V173l-44.136-57-37.017,56,19.22,27c5.695,8-2.847,20-8.542,12l-42-59Z" transform="translate(43.636 -20)" fill="#fff" fill-rule="evenodd"/>
  <path id="Path_202" data-name="Path 202" d="M0,0V200H5.455l90-78.182a7.134,7.134,0,0,1,10,0L130,145.455,180.909,90c2.727-3.636,7.273-3.636,10.909-.909l51.818,47.273V0ZM57.273,119.091c-18.182,0-32.727-14.545-32.727-31.818A32.591,32.591,0,0,1,57.273,54.545c17.273,0,31.818,14.545,31.818,32.727A32.21,32.21,0,0,1,57.273,119.091Zm0-49.091C47.273,70,40,77.273,40,87.273c0,9.091,7.273,16.364,17.273,16.364A16.3,16.3,0,0,0,73.636,87.273C73.636,77.273,66.364,70,57.273,70Z" fill="#fff" fill-rule="evenodd"/>
</svg>
