<svg xmlns="http://www.w3.org/2000/svg" width="200" height="200" viewBox="0 0 200 200">
  <g id="Instagram_Icon" data-name="Instagram Icon" transform="translate(-5 -5)">
    <path id="Path_206" data-name="Path 206" d="M171.667,5H38.333A33.289,33.289,0,0,0,5,38.333V171.667A33.289,33.289,0,0,0,38.333,205H171.667A33.289,33.289,0,0,0,205,171.667V38.333A33.289,33.289,0,0,0,171.667,5Zm11.111,166.667a11,11,0,0,1-11.111,11.111H38.333a11,11,0,0,1-11.111-11.111V93.889H62.111A46.221,46.221,0,0,0,60.556,105a44.444,44.444,0,1,0,88.889,0,37.3,37.3,0,0,0-1.556-11.111h34.889ZM82.778,105A22.222,22.222,0,1,1,105,127.222,22.288,22.288,0,0,1,82.778,105Zm100-33.333H134.333a44.276,44.276,0,0,0-58.667,0H27.222V38.333A11,11,0,0,1,38.333,27.222H171.667a11,11,0,0,1,11.111,11.111Z" transform="translate(0 0)" fill="#fff"/>
    <rect id="Rectangle_7" data-name="Rectangle 7" width="10" height="10" transform="translate(159.375 40.625)" fill="#fff"/>
  </g>
</svg>
