<svg xmlns="http://www.w3.org/2000/svg" width="200" height="200" viewBox="0 0 200 200">
  <g id="Linkedin_Icon" data-name="Linkedin Icon" transform="translate(-6 -958.362)">
    <path id="Path_207" data-name="Path 207" d="M35.545,6A29.545,29.545,0,1,0,65.091,35.545,29.649,29.649,0,0,0,35.545,6Zm0,13.636A15.909,15.909,0,1,1,19.636,35.545,15.807,15.807,0,0,1,35.545,19.636ZM153.727,65.091c-12.9,0-22.209,4.846-29.545,10.8a7.067,7.067,0,0,0-6.818-6.25H81a7.086,7.086,0,0,0-6.818,6.818V199.182A7.086,7.086,0,0,0,81,206h38.636a7.086,7.086,0,0,0,6.818-6.818V131a24.054,24.054,0,0,1,4.048-13.565c2.349-3.274,4.908-4.616,7.315-4.616h4.545c2.407,0,4.967,1.342,7.315,4.616A24.054,24.054,0,0,1,153.727,131v68.182A7.086,7.086,0,0,0,160.545,206h38.636A7.086,7.086,0,0,0,206,199.182V119.636c0-15.443-2.9-29.2-11.506-39.276S172.087,65.091,153.727,65.091ZM16.653,69.636a7.062,7.062,0,0,0-6.108,6.818V199.182A7.086,7.086,0,0,0,17.364,206H56a7.086,7.086,0,0,0,6.818-6.818V76.455A7.086,7.086,0,0,0,56,69.636Zm137.074,9.091c15.893,0,24.838,4,30.4,10.511s8.239,16.7,8.239,30.4v72.727h-25V131a36.994,36.994,0,0,0-6.605-21.52c-4.224-5.889-10.729-10.3-18.395-10.3h-4.545c-7.666,0-14.171,4.409-18.395,10.3A36.994,36.994,0,0,0,112.818,131v25a6.849,6.849,0,0,0-.71,0,6.827,6.827,0,1,0,.71,13.636v4.545a6.857,6.857,0,0,0-.71,0,6.827,6.827,0,1,0,.71,13.636v4.545h-25V83.273h22.727v9.091a6.819,6.819,0,0,0,12.145,4.261C130.252,87.2,137.546,78.727,153.727,78.727ZM24.182,83.273h25V156a6.849,6.849,0,0,0-.71,0,6.827,6.827,0,1,0,.71,13.636v4.545a6.857,6.857,0,0,0-.71,0,6.827,6.827,0,1,0,.71,13.636v4.545h-25Z" transform="translate(0 952.362)" fill="#fff"/>
  </g>
</svg>
