<svg xmlns="http://www.w3.org/2000/svg" width="200.958" height="199" viewBox="0 0 200.958 199">
  <g id="noun_Video_2194412" transform="translate(-7.372 -7.763)">
    <circle id="Ellipse_11" data-name="Ellipse 11" cx="15.409" cy="15.409" r="15.409" transform="translate(27.874 175.944)" fill="#fff"/>
    <path id="Path_234" data-name="Path 234" d="M168.385,77.831H28.514a18.654,18.654,0,0,1,0,16.293H168.385a8.147,8.147,0,1,0,0-16.293Z" transform="translate(31.797 105.38)" fill="#fff"/>
    <path id="Path_235" data-name="Path 235" d="M15.52,77.831a8.147,8.147,0,1,0,0,16.293H26.252a18.654,18.654,0,0,1,0-16.293Z" transform="translate(0 105.38)" fill="#fff"/>
    <path id="Path_236" data-name="Path 236" d="M185.053,7.763H30.649A23.274,23.274,0,0,0,7.372,31.04V147.427A23.277,23.277,0,0,0,30.649,170.7h154.4a23.277,23.277,0,0,0,23.277-23.277V31.04A23.274,23.274,0,0,0,185.053,7.763ZM71.376,138V43.019l82.26,47.493Z" transform="translate(0 0)" fill="#fff"/>
  </g>
</svg>
