<svg xmlns="http://www.w3.org/2000/svg" width="200" height="193.333" viewBox="0 0 200 193.333">
  <g id="noun_nature_989178" transform="translate(0 -0.016)">
    <g id="Group_4" data-name="Group 4" transform="translate(0 0.016)">
      <g id="Group_3" data-name="Group 3" transform="translate(0 0)">
        <path id="Path_218" data-name="Path 218" d="M80,143.492v-5.308l5.69-5.713a3.34,3.34,0,1,0-4.713-4.733l-4.31,4.328-4.31-4.328a3.34,3.34,0,1,0-4.713,4.733l5.69,5.713v5.308H53.277c.08-.057.147-.127.22-.187a33.942,33.942,0,0,0,2.67-2.269c.02-.02.043-.037.063-.057a33.5,33.5,0,0,0,8.3-12.595c.04-.1.077-.2.113-.3a32.773,32.773,0,0,0,.967-3.166c.053-.208.11-.415.16-.626.23-.987.41-1.995.547-3.016.037-.261.09-.515.12-.777a33.676,33.676,0,0,0,.227-3.779,34.045,34.045,0,0,0-.23-3.8c-.037-.3-.093-.589-.137-.887-.137-.984-.31-1.955-.533-2.912-.067-.281-.143-.559-.217-.837-.26-1-.56-1.978-.907-2.939-.077-.208-.147-.415-.227-.619a33.689,33.689,0,0,0-1.443-3.247c-.023-.047-.043-.094-.067-.141a33.676,33.676,0,0,0-4.3-6.376c-.117-.137-.243-.264-.363-.4-.7-.79-1.43-1.546-2.2-2.269-.21-.2-.423-.388-.64-.582q-1.15-1.024-2.39-1.938c-.13-.1-.243-.211-.373-.3L73.03,50.814,84.19,76.753v.007l16.063,37.329,12.65,29.4Zm113.713,4.9a3.337,3.337,0,1,0,5.907-3.106L149.2,48.641,126.286,4.712a3.463,3.463,0,0,0-5.907,0L87.54,67.662,76.393,41.757a3.326,3.326,0,0,0-2.927-2.018,3.463,3.463,0,0,0-3.08,1.777L46.85,86.148a33,33,0,0,0-13.517-2.9A33.475,33.475,0,0,0,30,150.015v33.641a3.333,3.333,0,1,0,6.667,0v-33.47H73.333v33.47a3.333,3.333,0,1,0,6.667,0v-33.47h37.977c.007,0,.013,0,.023,0a3.273,3.273,0,0,0,1.163-.244c.043-.017.09-.007.133-.027s.05-.04.08-.057a3.271,3.271,0,0,0,.94-.653c.057-.06.1-.12.153-.181a3.6,3.6,0,0,0,.29-.345,2.966,2.966,0,0,0,.237-.485c.03-.06.063-.114.09-.177a3.287,3.287,0,0,0,.2-1.088c0-.087,0-.171-.007-.258a3.36,3.36,0,0,0-.243-1.155L90.943,75.571l10.323-19.791,6.377,6.4a3.32,3.32,0,0,0,4.713,0l4.31-4.328,4.31,4.328a3.32,3.32,0,0,0,4.713,0L130,57.856l4.31,4.328a3.322,3.322,0,0,0,4.713,0l6.377-6.4Z" transform="translate(0 6.33)" fill="#fff" fill-rule="evenodd"/>
        <path id="Path_219" data-name="Path 219" d="M53.259,18.533h24.69a6.179,6.179,0,0,1,6.172,6.172,3.086,3.086,0,0,0,6.172,0A12.357,12.357,0,0,0,77.948,12.361H53.259a3.086,3.086,0,1,1,0-6.172H65.6a3.086,3.086,0,1,0,0-6.172H53.259a9.259,9.259,0,1,0,0,18.517" transform="translate(106.62 -0.016)" fill="#fff" fill-rule="evenodd"/>
        <path id="Path_220" data-name="Path 220" d="M61.086,55.016A3.087,3.087,0,0,0,58,58.1v3.086a3.086,3.086,0,1,0,6.172,0V58.1a3.087,3.087,0,0,0-3.086-3.086" transform="translate(135.827 129.058)" fill="#fff" fill-rule="evenodd"/>
        <path id="Path_221" data-name="Path 221" d="M57.086,55.016A3.087,3.087,0,0,0,54,58.1v3.086a3.086,3.086,0,0,0,6.172,0V58.1a3.087,3.087,0,0,0-3.086-3.086" transform="translate(127.482 129.058)" fill="#fff" fill-rule="evenodd"/>
        <path id="Path_222" data-name="Path 222" d="M53.086,55.016A3.087,3.087,0,0,0,50,58.1v3.086a3.086,3.086,0,1,0,6.172,0V58.1a3.087,3.087,0,0,0-3.086-3.086" transform="translate(119.137 129.058)" fill="#fff" fill-rule="evenodd"/>
        <path id="Path_223" data-name="Path 223" d="M49.086,55.016A3.087,3.087,0,0,0,46,58.1v3.086a3.086,3.086,0,0,0,6.172,0V58.1a3.087,3.087,0,0,0-3.086-3.086" transform="translate(107.725 129.058)" fill="#fff" fill-rule="evenodd"/>
        <path id="Path_224" data-name="Path 224" d="M45.086,55.016A3.087,3.087,0,0,0,42,58.1v3.086a3.086,3.086,0,1,0,6.172,0V58.1a3.087,3.087,0,0,0-3.086-3.086" transform="translate(98.357 129.058)" fill="#fff" fill-rule="evenodd"/>
        <path id="Path_225" data-name="Path 225" d="M41.086,55.016A3.087,3.087,0,0,0,38,58.1v3.086a3.086,3.086,0,1,0,6.172,0V58.1a3.087,3.087,0,0,0-3.086-3.086" transform="translate(88.99 129.058)" fill="#fff" fill-rule="evenodd"/>
        <path id="Path_226" data-name="Path 226" d="M37.086,55.016A3.087,3.087,0,0,0,34,58.1v3.086a3.086,3.086,0,1,0,6.172,0V58.1a3.087,3.087,0,0,0-3.086-3.086" transform="translate(79.623 129.058)" fill="#fff" fill-rule="evenodd"/>
        <path id="Path_227" data-name="Path 227" d="M33.086,55.016A3.087,3.087,0,0,0,30,58.1v3.086a3.086,3.086,0,1,0,6.172,0V58.1a3.087,3.087,0,0,0-3.086-3.086" transform="translate(70.255 129.058)" fill="#fff" fill-rule="evenodd"/>
        <path id="Path_228" data-name="Path 228" d="M29.086,55.016A3.087,3.087,0,0,0,26,58.1v3.086a3.086,3.086,0,1,0,6.172,0V58.1a3.087,3.087,0,0,0-3.086-3.086" transform="translate(60.888 129.058)" fill="#fff" fill-rule="evenodd"/>
        <path id="Path_229" data-name="Path 229" d="M21.086,55.016A3.087,3.087,0,0,0,18,58.1v3.086a3.086,3.086,0,1,0,6.172,0V58.1a3.087,3.087,0,0,0-3.086-3.086" transform="translate(42.153 129.058)" fill="#fff" fill-rule="evenodd"/>
        <path id="Path_230" data-name="Path 230" d="M16.086,55.016A3.087,3.087,0,0,0,13,58.1v3.086a3.086,3.086,0,1,0,6.172,0V58.1a3.087,3.087,0,0,0-3.086-3.086" transform="translate(30.444 129.058)" fill="#fff" fill-rule="evenodd"/>
        <path id="Path_231" data-name="Path 231" d="M7.086,55.016A3.087,3.087,0,0,0,4,58.1v3.086a3.086,3.086,0,1,0,6.172,0V58.1a3.087,3.087,0,0,0-3.086-3.086" transform="translate(8.345 129.058)" fill="#fff" fill-rule="evenodd"/>
        <path id="Path_232" data-name="Path 232" d="M3.086,55.016A3.087,3.087,0,0,0,0,58.1v3.086a3.086,3.086,0,1,0,6.172,0V58.1a3.087,3.087,0,0,0-3.086-3.086" transform="translate(0 129.058)" fill="#fff" fill-rule="evenodd"/>
        <path id="Path_233" data-name="Path 233" d="M13.308,41.331H49.185c6.163,0,12.539-3.969,12.539-10.61a11.769,11.769,0,0,0-9.388-11.8C51.145,5.787,41.88,1.016,33.174,1.016A24.32,24.32,0,0,0,12.895,11.271C5.639,12.209,0,18.869,0,26.921c0,8.752,5.222,14.409,13.308,14.409" transform="translate(0.001 2.069)" fill="#fff" fill-rule="evenodd"/>
      </g>
    </g>
  </g>
</svg>
