<svg xmlns="http://www.w3.org/2000/svg" width="200" height="200" viewBox="0 0 200 200">
  <path id="Projects_Icon" data-name="Projects Icon" d="M198.318,25.21,180.5,9.168a14.46,14.46,0,0,0-8.273-3.308H31.773A14.46,14.46,0,0,0,23.5,9.168L5.682,25.21A13.507,13.507,0,0,0,2,34.085v28.17c0,3.087,2.045,5.568,4.591,5.568H197.409c2.545,0,4.591-2.481,4.591-5.568V34.085A13.507,13.507,0,0,0,198.318,25.21ZM9.409,196.874c0,4.961,3.318,8.986,7.409,8.986H187.182c4.091,0,7.409-4.024,7.409-8.986V80.116H9.409ZM76.5,103.269h51c5.273,0,9.545,5.237,9.545,11.632s-4.273,11.577-9.545,11.577h-51c-5.273,0-9.545-5.237-9.545-11.577C66.909,108.451,71.227,103.269,76.5,103.269Z" transform="translate(-2 -5.86)" fill="#fff"/>
</svg>
