<svg xmlns="http://www.w3.org/2000/svg" width="260" height="200" viewBox="0 0 260 200">
  <g id="Social_Media_Icon" data-name="Social Media Icon" transform="translate(-0.3 -11.5)">
    <path id="Path_203" data-name="Path 203" d="M229.727,146.656v-37.5h-15.94l-30.573,20.573a13.86,13.86,0,0,1-7.839,2.344,14.028,14.028,0,0,1-14.111-14.062V108.9H161a23.936,23.936,0,0,1-24.04-23.958V39.365H93.325a22.04,22.04,0,0,0-18.03,9.115c-.261.26-.784,1.042-1.045,1.3L47.858,89.365,33.747,91.708a22.155,22.155,0,0,0-22.211,22.135v32.292A12.878,12.878,0,0,0,.3,158.635v15.885a12.524,12.524,0,0,0,12.543,12.5H28.521a34.381,34.381,0,0,0,65.849,0h48.6a34.381,34.381,0,0,0,65.849,0h18.03a12.524,12.524,0,0,0,12.543-12.5V158.635A12.76,12.76,0,0,0,229.727,146.656ZM61.446,195.094a17.265,17.265,0,0,1-16.985-16.927A17.09,17.09,0,0,1,61.446,161.24a17.265,17.265,0,0,1,16.985,16.927A17.09,17.09,0,0,1,61.446,195.094Zm114.191,0a16.927,16.927,0,1,1,0-33.854,17.265,17.265,0,0,1,16.985,16.927A16.921,16.921,0,0,1,175.637,195.094ZM207.777,48.479l2.352,9.375-9.407,2.6-2.352-9.375ZM247.757,11.5H161A12.524,12.524,0,0,0,148.461,24V85.2A12.524,12.524,0,0,0,161,97.7h11.759v20.573a2.534,2.534,0,0,0,3.92,2.083L210.129,97.7h37.628A12.524,12.524,0,0,0,260.3,85.2V24A12.524,12.524,0,0,0,247.757,11.5ZM228.421,64.885l-4.181,1.042,1.045,4.167a5.513,5.513,0,0,1-3.92,6.771,11.351,11.351,0,0,0-1.307.26,5.572,5.572,0,0,1-5.487-4.167l-1.045-4.167-9.407,2.344,1.045,4.167a5.513,5.513,0,0,1-3.92,6.771,11.351,11.351,0,0,0-1.307.26,5.572,5.572,0,0,1-5.487-4.167L192.883,74,188.7,75.3h-1.568a5.572,5.572,0,0,1-5.487-4.167,5.513,5.513,0,0,1,3.92-6.771l4.181-1.042L187.4,53.948l-4.181,1.042a11.35,11.35,0,0,0-1.307.26,5.572,5.572,0,0,1-5.487-4.167,5.513,5.513,0,0,1,3.92-6.771l4.181-1.042L183.476,39.1a5.545,5.545,0,0,1,10.714-2.865l1.045,4.167,9.407-2.344L203.6,33.9a5.545,5.545,0,0,1,10.714-2.865l1.045,4.167,4.181-1.042a5.536,5.536,0,0,1,6.794,3.906,5.636,5.636,0,0,1-3.92,6.771l-4.181,1.042,2.352,9.375,4.181-1.042a5.536,5.536,0,0,1,6.794,3.906A4.7,4.7,0,0,1,228.421,64.885Z" transform="translate(0 0)" fill="#fff"/>
  </g>
</svg>
