<svg xmlns="http://www.w3.org/2000/svg" width="239.141" height="200" viewBox="0 0 239.141 200">
  <path id="Twitter_Icon" data-name="Twitter Icon" d="M161.732,24.907q17.516,0,30.559,12.671a2.147,2.147,0,0,0,1.491.745h.5a95.059,95.059,0,0,0,22.857-8.447c.248-.248,2.733-1.491,3.23-1.739a44.012,44.012,0,0,1-18.634,23.6A95.8,95.8,0,0,0,213.906,49.5,88.927,88.927,0,0,0,226.08,45.28a70.874,70.874,0,0,1-6.211,8.2,92.259,92.259,0,0,1-14.41,13.416,1.771,1.771,0,0,0-.745,1.491v7.453h0c-.994,29.565-11.18,55.9-30.311,78.758a114.455,114.455,0,0,1-58.385,36.77,134.9,134.9,0,0,1-21.863,3.975H73.285a81.331,81.331,0,0,1-17.391-2.236,122.282,122.282,0,0,1-38.758-15.652l-.745-.745c3.23.248,6.211.5,9.441.5a86.276,86.276,0,0,0,23.851-3.23A80.786,80.786,0,0,0,79.5,158.82c-19.627-1.739-33.043-11.677-40-29.814a40.134,40.134,0,0,0,7.7.5,45.115,45.115,0,0,0,11.429-1.491,43.225,43.225,0,0,1-24.6-15.4c-6.46-7.95-9.441-17.143-9.441-27.578a40.191,40.191,0,0,0,19.13,5.217C34.527,83.54,28.565,75.093,26.08,64.161s-.745-21.366,4.72-31.3a12.443,12.443,0,0,1,1.739,1.988c18.137,21.118,40.745,34.534,68.075,40.5a143.457,143.457,0,0,0,17.64,2.484h.994c.5,0,.5-.248.5-.994A44.275,44.275,0,0,1,119,65.4a41.511,41.511,0,0,1,14.907-30.062A39.186,39.186,0,0,1,157.26,25.155c.994,0,2.733-.248,4.472-.248M226.08,45.28h0M161.732,10h0a56.154,56.154,0,0,0-6.46.248,56.823,56.823,0,0,0-31.8,13.913c-11.18,9.938-17.888,22.112-19.627,36.77h-.5c-24.1-5.217-43.727-16.894-59.876-35.776l-.994-1.242-.5-.745A15.057,15.057,0,0,0,30.552,17.95H29.062A14.311,14.311,0,0,0,17.633,25.4a57.232,57.232,0,0,0-6.211,41.739A42.491,42.491,0,0,0,13.658,74.6,15.4,15.4,0,0,0,9.683,84.783c0,13.913,4.224,26.335,12.919,36.77a37.168,37.168,0,0,0,2.733,3.23,15.728,15.728,0,0,0,.5,8.944c4.224,10.683,10.186,19.379,17.888,25.839A70.071,70.071,0,0,1,26.08,161.8c-2.484,0-5.217-.248-7.95-.5H16.639a14.481,14.481,0,0,0-13.168,8.2,15.146,15.146,0,0,0,1.988,16.646,14.4,14.4,0,0,0,4.224,3.478,134.731,134.731,0,0,0,43.478,17.64A126.163,126.163,0,0,0,73.534,210H91.422a25.548,25.548,0,0,0,4.472-.248,134.212,134.212,0,0,0,24.6-4.472,122.235,122.235,0,0,0,65.093-41.242c21.118-24.845,32.547-53.913,33.789-86.46a6.056,6.056,0,0,0,0-2.981,126.776,126.776,0,0,0,11.677-11.429c2.733-3.23,4.969-6.211,7.2-9.441a14.886,14.886,0,0,0-3.727-20.87,14.287,14.287,0,0,0-4.72-16.149,15.284,15.284,0,0,0-9.441-3.478,14.972,14.972,0,0,0-7.2,1.988l-.5.248a22.984,22.984,0,0,1-2.484,1.242,73.961,73.961,0,0,1-13.168,5.466A56.289,56.289,0,0,0,161.732,10Z" transform="translate(-1.846 -10)" fill="#fff"/>
</svg>
