<svg xmlns="http://www.w3.org/2000/svg" width="200" height="200" viewBox="0 0 200 200">
  <path id="Path_208" data-name="Path 208" d="M123.763,35.949c7.4,9.123,12.354,19.094,16.188,29.657,1.413,3.891,2.273,7.984,3.69,11.873,1.016,2.8.121,4.393-2.106,6.093-16.779,12.829-31.58,27.611-43.472,45.181-9.194,13.584-16.056,28.221-19.283,44.409a65.96,65.96,0,0,0-1.018,9.28c-.1,1.948-.687,2.984-2.758,3.132a61.661,61.661,0,0,1-32.748-6.361c-.9-.451-1.611-2.143-1.651-3.285-.357-9.97,2.25-19.44,5.529-28.684,8.707-24.539,22.567-46.2,38.632-66.368C96.609,66.007,109.539,52.01,122,37.633,122.44,37.117,122.979,36.689,123.763,35.949ZM37.779,163.932c2.15-12.714,6.595-24.705,12.324-36.212C63.226,101.378,80.766,78.1,99.927,55.981c6.787-7.831,13.921-15.356,21.092-23.233A65.085,65.085,0,0,0,104.307,19.1a7.172,7.172,0,0,0-7.69-.122c-23.184,11.764-43.1,27.5-58.523,48.6C20.335,91.892,13.1,119.214,15.556,149.177a10.706,10.706,0,0,0,.913,4.361c5.218,9.068,12.026,16.843,20.309,24.573C37.123,172.826,37.039,168.305,37.779,163.932Zm55.633-14.4c8.156,5.8,16.2,11.748,24.509,17.314a89.367,89.367,0,0,0,31.091,13.605c8.651,1.851,16.777.855,22.916-6.6,4.463-5.426,9.274-10.6,13.34-16.31,3.36-4.711,5.857-10.045,9.054-15.66-15.971,1.889-30.573-.786-44.838-4.952-14.186-4.147-28.092-9.25-42.866-14.188-4.963,7.8-10.268,16.128-15.768,24.766C91.98,148.4,92.67,149,93.412,149.53ZM165.7,136.709c8.206,1.4,16.685,1.2,25.048,1.606,3.285.157,5.638-1.1,6.4-4.738,1.321-6.309,3.078-12.532,4.213-18.872.7-3.891.57-7.934.781-11.335-5.809-1.109-11.229-1.388-16.073-3.218-12.347-4.665-24.456-9.968-36.6-15.161-1.713-.736-2.825-.8-4.271.434-4.386,3.738-9.117,7.1-13.288,11.054-7.5,7.11-14.686,14.549-22.532,22.374C128.391,126.888,146.583,133.455,165.7,136.709ZM150.167,24.084C132.585,6.288,110.883-.04,86.4,3.063c-6.235.788-12.31,2.858-18.457,4.34.075.331.15.66.226.99,1.122,0,2.246.052,3.364-.006,22.739-1.22,41.018,7.514,55.255,25.074,10.506,12.959,16.727,27.99,20.858,44.028a6.28,6.28,0,0,0,2.865,3.709c8.17,3.963,16.439,7.743,24.751,11.406,3.423,1.51,7.036,2.577,11.522,4.191C179.833,68.986,169.838,43.992,150.167,24.084ZM93.215,14.551a62.892,62.892,0,0,0-29.377-1.612c-4.923.883-10.3,1.629-14.435,4.145C8.309,42.05-8.788,94.727,9.35,139.394c.378.931.913,1.8,1.632,3.189C11.254,81.216,44.823,42.87,94.971,15.15,94.193,14.886,93.71,14.7,93.215,14.551Zm-6.659,144.59c-1.96,7.33-3.734,14.716-5.454,22.105-.619,2.656.351,4.6,3.055,5.726,5.709,2.384,11.192,5.411,17.043,7.328,13,4.263,26.134,7.611,39.372.407,5.684-3.1,11.562-5.829,17.352-8.731-27.121-3.311-47.473-18.841-68.269-34.457A65.6,65.6,0,0,0,86.556,159.141Zm86.13-110.809a176.6,176.6,0,0,1,17.369,46.435c.249,1.1.938,2.826,1.686,2.979,3.287.675,6.67.881,10.1,1.266-.293-40.684-29.229-79.317-65.847-90.8C152.141,18.031,163.73,31.957,172.686,48.332Zm-61.858,152.6c-8.5-3.07-17.185-5.705-25.43-9.345a29.8,29.8,0,0,0-14.146-2.5c-5.748.262-11.57-1.006-17.352-1.694a20.372,20.372,0,0,1-3.3-.962c-.951-.283-1.906-.556-2.859-.832,19.32,13.282,40.715,18.111,64.687,16.373A13.862,13.862,0,0,0,110.828,200.929Z" transform="translate(-2.143 -2.306)" fill="#fff" fill-rule="evenodd"/>
</svg>
