<svg xmlns="http://www.w3.org/2000/svg" width="200" height="191.999" viewBox="0 0 200 191.999">
  <path id="noun_supporter_97024" d="M9.716,89.944a4.039,4.039,0,0,1,2.432-4.41L66.272,60a7.9,7.9,0,0,1,3.383-.75h24a16,16,0,0,1,16,16v124a3.988,3.988,0,0,1-2.633,3.76,4.082,4.082,0,0,1-1.368.241,3.988,3.988,0,0,1-3.76-2.633L84.721,153.437l-27.6,47.811a4.015,4.015,0,0,1-3.466,2,4.733,4.733,0,0,1-2-.535,4.052,4.052,0,0,1-2-3.466l12-68.4v-46L14.349,93.19A4.016,4.016,0,0,1,9.9,90.62l-.181-.675ZM69.658,27.25a16,16,0,1,1,16,16,16,16,0,0,1-16-16Zm60,8a16,16,0,1,1,16,16,16,16,0,0,1-16-16Zm74,2.537a4.039,4.039,0,0,1,2-.537,4,4,0,0,1,2.829,6.832L173.656,78.906l0,51.943L185.6,198.555a4.017,4.017,0,0,1-1.94,4.159c-3,.776-4.643-.058-5.466-1.466l-27.6-47.809-17.172,47.176a3.987,3.987,0,0,1-3.76,2.633,4.073,4.073,0,0,1-1.368-.241,3.99,3.99,0,0,1-2.633-3.757v-108a16.026,16.026,0,0,1,8-13.854l70-39.609Z" transform="translate(-9.656 -11.25)" fill="#fff"/>
</svg>
