<svg xmlns="http://www.w3.org/2000/svg" width="200" height="133.333" viewBox="0 0 200 133.333">
  <path id="Path_213" data-name="Path 213" d="M187.5,0H12.5A12.537,12.537,0,0,0,0,12.5V120.833a12.537,12.537,0,0,0,12.5,12.5h175a12.537,12.537,0,0,0,12.5-12.5V12.5A12.537,12.537,0,0,0,187.5,0ZM35.25,22.75A20.924,20.924,0,1,1,29.167,37.5,20.924,20.924,0,0,1,35.25,22.75Zm48.083,85.583H16.667v-4.167a33.333,33.333,0,1,1,66.667,0Zm85.5-8.333H106.208a6.25,6.25,0,0,1,0-12.5h62.625a6.25,6.25,0,0,1,0,12.5Zm0-25H106.208a6.25,6.25,0,0,1,0-12.5h62.625a6.25,6.25,0,0,1,0,12.5Zm0-25H106.208a6.25,6.25,0,0,1,0-12.5h62.625a6.25,6.25,0,0,1,0,12.5Z" fill="#fff"/>
</svg>
